<?xml version="1.0" encoding="UTF-8"?><svg id="Layer_2" xmlns="http://www.w3.org/2000/svg" viewBox="0 0 498.35 697.34"><defs><style>.cls-1{fill:#231f20;stroke-width:0px;}</style></defs><g id="Layer_1-2"><path class="cls-1" d="M203.98,591.16c0,5.15-4.05,9.37-9.19,9.65-7.53.41-15.09.56-21.28.56-82.98,0-110.74-39.23-114.06-102.29-.3-7.85-.6-15.99-.6-24.44v-100.48c0-35.91-19.92-43.75-47.98-43.75h-1.21c-5.33,0-9.66-4.32-9.66-9.66v-40.13c0-5.33,4.32-9.66,9.66-9.66h1.21c39.53,0,47.98-16.29,47.98-44.05v-96.86c0-8.15.3-16.29.6-24.14C62.76,42.55,90.52,0,173.5,0c5.49,0,13.37.32,21.44.84,5.08.33,9.04,4.55,9.04,9.64v40.21c0,5.34-4.34,9.67-9.69,9.65-.8,0-1.59,0-2.38,0-45.56,0-60.95,14.48-60.95,70.61v98.97c0,28.66-8.17,49.16-25.56,63.05-4.74,3.78-4.76,11.2-.06,15.03,16.83,13.69,24.11,34.61,24.11,63.43v102.89c0,55.22,18.41,66.68,64.87,66.68h0c5.33,0,9.66,4.32,9.66,9.66v40.48Z"/><path class="cls-1" d="M294.37,10.21c0-5.15,4.05-9.37,9.19-9.65,7.53-.41,15.09-.56,21.28-.56,82.98,0,110.74,39.23,114.06,102.29.3,7.85.6,15.99.6,24.44v100.48c0,35.91,19.92,43.75,47.98,43.75h1.21c5.33,0,9.66,4.32,9.66,9.66v40.13c0,5.33-4.32,9.66-9.66,9.66h-1.21c-39.53,0-47.98,16.29-47.98,44.05v96.86c0,8.15-.3,16.29-.6,24.14-3.32,63.36-31.08,105.91-114.06,105.91-5.49,0-13.37-.32-21.44-.84-5.08-.33-9.04-4.55-9.04-9.64v-40.21c0-5.34,4.34-9.67,9.69-9.65.8,0,1.59,0,2.38,0,45.56,0,60.95-14.48,60.95-70.61v-98.97c0-28.66,8.17-49.16,25.56-63.05,4.74-3.78,4.76-11.2.06-15.03-16.83-13.69-24.11-34.61-24.11-63.43v-102.89c0-55.22-18.41-66.68-64.87-66.68h0c-5.33,0-9.66-4.32-9.66-9.66V10.21Z"/><path class="cls-1" d="M219.22,662.12v5.79c0,16.25,13.18,29.43,29.43,29.43h0c16.25,0,29.43-13.18,29.43-29.43v-5.79h-58.86Z"/><rect class="cls-1" x="201.15" y="609.06" width="95.01" height="18.03" rx="3.78" ry="3.78"/><rect class="cls-1" x="201.15" y="635.59" width="95.01" height="18.03" rx="3.78" ry="3.78"/></g></svg>